<!--?xml version="1.0" encoding="utf-8"?-->
<!-- Generator: Adobe Illustrator 22.1.0, SVG Export Plug-In . SVG Version: 6.00 Build 0)  -->
<svg version="1.0" id="Layer_1" xmlns="http://www.w3.org/2000/svg" xmlns:xlink="http://www.w3.org/1999/xlink" x="0px" y="0px" viewBox="0 0 2267.7 950.9" style="" xml:space="preserve">
<g>
	
		<path style="fill:none;stroke:#FF5218;stroke-width:12;stroke-linecap:round;stroke-linejoin:round;stroke-miterlimit:10;" d="M407,651.9L407,542.5L731.2,615.4L731.2,724.8Z" class="zfLjwGRs_0"></path>
	
		<path style="fill:none;stroke:#FF5218;stroke-width:12;stroke-linecap:round;stroke-linejoin:round;stroke-miterlimit:10;" d="M731.2,724.8L811.8,608.6L811.8,499.3L731.2,615.4Z" class="zfLjwGRs_1"></path>
	
		<path style="fill:none;stroke:#FF5218;stroke-width:12;stroke-linecap:round;stroke-linejoin:round;stroke-miterlimit:10;" d="M407,542.5L731.2,615.4L811.8,499.3L811.8,465L508.1,396.7Z" class="zfLjwGRs_2"></path>
</g>
<path style="fill:#FF5218;stroke:#F2F2F2;stroke-width:12;stroke-linecap:round;stroke-linejoin:round;stroke-miterlimit:10;" d="M1333.5,541L811.8,423.5L953.4,219.2L1475.2,336.7Z" class="zfLjwGRs_3"></path>
<g>
	
		<path style="fill:#FF5218;stroke:#F2F2F2;stroke-width:12;stroke-linecap:round;stroke-linejoin:round;stroke-miterlimit:10;" d="M811.8,689.8L811.8,423.5L1333.5,541L1333.5,807.3Z" class="zfLjwGRs_4"></path>
	
		<path style="fill:#FF5218;stroke:#F2F2F2;stroke-width:12;stroke-linecap:round;stroke-linejoin:round;stroke-miterlimit:10;" d="M1333.5,807.3L1435.4,660.4L1435.4,524L1475.2,466.6L1475.2,336.7L1333.5,541Z" class="zfLjwGRs_5"></path>
	
		<path style="fill:#FF5218;stroke:#F2F2F2;stroke-width:12;stroke-linecap:round;stroke-linejoin:round;stroke-miterlimit:10;" d="M811.8,423.5L953.4,219.2L1475.2,336.7L1333.5,541Z" class="zfLjwGRs_6"></path>
</g>
<g>
	
		<path style="fill:none;stroke:#FF5218;stroke-width:12;stroke-linecap:round;stroke-linejoin:round;stroke-miterlimit:10;" d="M1860.8,451.1L1536.5,378.2L1435.4,524L1759.7,597Z" class="zfLjwGRs_7"></path>
	
		<path style="fill:none;stroke:#FF5218;stroke-width:12;stroke-linecap:round;stroke-linejoin:round;stroke-miterlimit:10;" d="M1435.4,744.3L1435.4,524L1759.7,597L1759.7,817.2Z" class="zfLjwGRs_8"></path>
	
		<path style="fill:none;stroke:#FF5218;stroke-width:12;stroke-linecap:round;stroke-linejoin:round;stroke-miterlimit:10;" d="M1759.7,817.2L1860.8,671.4L1860.8,451.1L1759.7,597Z" class="zfLjwGRs_9"></path>
</g>
<g>
	<path style="fill:#F2F2F2;" d="M1026.9,535.8c7.6,1.2,13.2,8.3,12.5,15.7c-0.7,7.4-7.4,12.3-15,10.9c-7.5-1.4-12.9-8.4-12.3-15.6
		C1012.8,539.5,1019.4,534.6,1026.9,535.8z" class="zfLjwGRs_10"></path>
	<path style="fill:#F2F2F2;" d="M1061.7,541.6c8,1.3,13.9,8.5,13.2,16.1c-0.7,7.6-7.8,12.6-15.8,11.1c-7.9-1.5-13.6-8.6-12.9-16.1
		C1047,545.3,1053.8,540.3,1061.7,541.6z" class="zfLjwGRs_11"></path>
	<path style="fill:#F2F2F2;" d="M1098.5,547.6c8.4,1.4,14.7,8.8,14,16.7c-0.7,7.8-8.2,12.9-16.6,11.3c-8.3-1.5-14.4-9-13.7-16.6
		C1082.9,551.3,1090.2,546.2,1098.5,547.6z" class="zfLjwGRs_12"></path>
	<path style="fill:#F2F2F2;" d="M1023.8,568.9c7.6,1.4,13.2,8.6,12.5,16c-0.7,7.4-7.4,12.1-15,10.5c-7.5-1.6-12.9-8.7-12.2-16
		C1009.8,572.2,1016.4,567.5,1023.8,568.9z" class="zfLjwGRs_13"></path>
	<path style="fill:#F2F2F2;" d="M1058.6,575.5c8,1.5,13.9,8.9,13.2,16.5c-0.7,7.6-7.8,12.4-15.7,10.7c-7.9-1.6-13.6-9-12.9-16.4
		C1043.9,578.8,1050.7,574,1058.6,575.5z" class="zfLjwGRs_14"></path>
	<path style="fill:#F2F2F2;" d="M1095.3,582.4c8.4,1.6,14.7,9.2,14,17c-0.7,7.8-8.2,12.7-16.6,10.9c-8.3-1.7-14.4-9.3-13.7-17
		C1079.7,585.8,1087,580.9,1095.3,582.4z" class="zfLjwGRs_15"></path>
	<path style="fill:#F2F2F2;" d="M1020.8,601.9c7.5,1.6,13.2,8.9,12.5,16.4c-0.7,7.4-7.4,12-14.9,10.2c-7.4-1.8-12.9-9-12.2-16.3
		C1006.8,604.9,1013.3,600.3,1020.8,601.9z" class="zfLjwGRs_16"></path>
	<path style="fill:#F2F2F2;" d="M1055.5,609.4c7.9,1.7,13.9,9.3,13.2,16.9s-7.8,12.2-15.7,10.4c-7.8-1.8-13.6-9.4-12.9-16.8
		C1040.8,612.4,1047.6,607.7,1055.5,609.4z" class="zfLjwGRs_17"></path>
	<path style="fill:#F2F2F2;" d="M1092.1,617.3c8.4,1.8,14.7,9.6,13.9,17.4c-0.7,7.8-8.2,12.5-16.5,10.6c-8.3-1.9-14.3-9.7-13.6-17.3
		C1076.6,620.3,1083.8,615.5,1092.1,617.3z" class="zfLjwGRs_18"></path>
	<path style="fill:#F2F2F2;" d="M1052.4,643.1c7.9,1.9,13.8,9.6,13.1,17.2s-7.7,12.1-15.7,10c-7.8-2-13.5-9.7-12.8-17.2
		C1037.7,645.7,1044.5,641.2,1052.4,643.1z" class="zfLjwGRs_19"></path>
</g>
<path style="fill:#F2F2F2;stroke:#F2F2F2;stroke-width:8.7135;stroke-linecap:round;stroke-linejoin:round;stroke-miterlimit:10;" d="M860.3,622L852.1,594.7L862.8,581.4L873,608.1L898.9,609.3L913.4,658.9L902.4,656.6L905.9,678.3L887.5,678.3L879,670.1L866.3,681.2L
	856.7,670.7L843.3,664.2L856.7,655.4L847.5,646Z" class="zfLjwGRs_20"></path>
<g>
	<path style="fill:#FF5218;" d="M842,747.5c0-20.3-29.1-24.1-45.4-22.3c3,3.3,5.8,10.5,9.8,26.1C818.9,768.6,842,767.1,842,747.5z" class="zfLjwGRs_21"></path>
	<path style="fill:#FF5218;" d="M803.9,764.5c-1.5,2.1-5.6,7.3-8.5,10.8c2.1,3.5,5.6,5.6,9.8,5.6h0.4l19-0.6c3.1,0,5.6-2.7,5.6-5.8
		c0-3.1-2.7-5.4-5.8-5.4l-19,0.4L803.9,764.5z" class="zfLjwGRs_22"></path>
	<path style="fill:#FF5218;" d="M749.9,746.6c-0.2,2.7,1.7,5,4.4,5.2l11.7,0.8c3.7,0.4,7.5-1.5,9.6-4.8c0.8-1.2,1.7-2.5,2.3-3.5
		l6.7,18.3l-5.2,6.5c-3.1,4.2-5.6,8.7-7.3,13.7l-5,16.5c-1,3.1,0.8,6.2,3.7,7.3c0.4,0.2,1,0.2,1.7,0.2c2.3,0,4.6-1.5,5.4-4l5.2-16.5
		c1.2-3.5,3.1-7.1,5.4-10c0,0,9.4-11.7,11.7-14.8c2.1-2.7,1.9-4.8,1-8.1c-0.8-3.3-5.2-23.1-9.2-25.6c-1.5-0.8-3.1-1.2-4.8-0.8
		c-1.2,0.2-3.7,0.6-5.6,1l-2.1,0.4c-2.1,0.4-3.3,0.6-12.1,14.4c-0.2,0.2-0.4,0.4-0.8,0.4l-11.7-0.8
		C752.2,742.3,749.9,744.1,749.9,746.6z" class="zfLjwGRs_23"></path>
	<path style="fill:#FF5218;" d="M769.6,714.8A10.6,10.6 0,1,1 790.8000000000001,714.8A10.6,10.6 0,1,1 769.6,714.8" class="zfLjwGRs_24"></path>
</g>
<g>
	<path style="fill:none;stroke:#F2F2F2;stroke-width:3.027;stroke-linecap:round;stroke-linejoin:round;stroke-miterlimit:10;" d="
		M817.7,743.9c0,0-1.1-3.7,3.2-5.7c2.9-1.3,4.6-0.2,5.4,0.7c0.4,0.5,0.7,1.1,0.7,1.7c0,0.9-0.1,2.3-1.1,3.7
		c-1.7,2.4-0.6,4.7-0.6,4.7" class="zfLjwGRs_25"></path>
	
		<path style="fill:none;stroke:#F2F2F2;stroke-width:3.027;stroke-linecap:round;stroke-linejoin:round;stroke-miterlimit:10;" d="M827.4,753L827.7,753.6" class="zfLjwGRs_26"></path>
</g>
<style data-made-with="vivus-instant">.zfLjwGRs_0{stroke-dasharray:884 886;stroke-dashoffset:885;animation:zfLjwGRs_draw 3000ms ease-in 0ms forwards;}.zfLjwGRs_1{stroke-dasharray:502 504;stroke-dashoffset:503;animation:zfLjwGRs_draw 3000ms ease-in 0ms forwards;}.zfLjwGRs_2{stroke-dasharray:997 999;stroke-dashoffset:998;animation:zfLjwGRs_draw 3000ms ease-in 0ms forwards;}.zfLjwGRs_3{stroke-dasharray:1567 1569;stroke-dashoffset:1568;animation:zfLjwGRs_draw 3000ms ease-in 0ms forwards;}.zfLjwGRs_4{stroke-dasharray:1603 1605;stroke-dashoffset:1604;animation:zfLjwGRs_draw 3000ms ease-in 0ms forwards;}.zfLjwGRs_5{stroke-dasharray:1030 1032;stroke-dashoffset:1031;animation:zfLjwGRs_draw 3000ms ease-in 0ms forwards;}.zfLjwGRs_6{stroke-dasharray:1567 1569;stroke-dashoffset:1568;animation:zfLjwGRs_draw 3000ms ease-in 0ms forwards;}.zfLjwGRs_7{stroke-dasharray:1020 1022;stroke-dashoffset:1021;animation:zfLjwGRs_draw 3000ms ease-in 0ms forwards;}.zfLjwGRs_8{stroke-dasharray:1106 1108;stroke-dashoffset:1107;animation:zfLjwGRs_draw 3000ms ease-in 0ms forwards;}.zfLjwGRs_9{stroke-dasharray:796 798;stroke-dashoffset:797;animation:zfLjwGRs_draw 3000ms ease-in 0ms forwards;}.zfLjwGRs_10{stroke-dasharray:86 88;stroke-dashoffset:87;animation:zfLjwGRs_draw 3000ms ease-in 0ms forwards;}.zfLjwGRs_11{stroke-dasharray:89 91;stroke-dashoffset:90;animation:zfLjwGRs_draw 3000ms ease-in 0ms forwards;}.zfLjwGRs_12{stroke-dasharray:93 95;stroke-dashoffset:94;animation:zfLjwGRs_draw 3000ms ease-in 0ms forwards;}.zfLjwGRs_13{stroke-dasharray:86 88;stroke-dashoffset:87;animation:zfLjwGRs_draw 3000ms ease-in 0ms forwards;}.zfLjwGRs_14{stroke-dasharray:89 91;stroke-dashoffset:90;animation:zfLjwGRs_draw 3000ms ease-in 0ms forwards;}.zfLjwGRs_15{stroke-dasharray:93 95;stroke-dashoffset:94;animation:zfLjwGRs_draw 3000ms ease-in 0ms forwards;}.zfLjwGRs_16{stroke-dasharray:86 88;stroke-dashoffset:87;animation:zfLjwGRs_draw 3000ms ease-in 0ms forwards;}.zfLjwGRs_17{stroke-dasharray:90 92;stroke-dashoffset:91;animation:zfLjwGRs_draw 3000ms ease-in 0ms forwards;}.zfLjwGRs_18{stroke-dasharray:93 95;stroke-dashoffset:94;animation:zfLjwGRs_draw 3000ms ease-in 0ms forwards;}.zfLjwGRs_19{stroke-dasharray:90 92;stroke-dashoffset:91;animation:zfLjwGRs_draw 3000ms ease-in 0ms forwards;}.zfLjwGRs_20{stroke-dasharray:318 320;stroke-dashoffset:319;animation:zfLjwGRs_draw 3000ms ease-in 0ms forwards;}.zfLjwGRs_21{stroke-dasharray:135 137;stroke-dashoffset:136;animation:zfLjwGRs_draw 3000ms ease-in 0ms forwards;}.zfLjwGRs_22{stroke-dasharray:87 89;stroke-dashoffset:88;animation:zfLjwGRs_draw 3000ms ease-in 0ms forwards;}.zfLjwGRs_23{stroke-dasharray:249 251;stroke-dashoffset:250;animation:zfLjwGRs_draw 3000ms ease-in 0ms forwards;}.zfLjwGRs_24{stroke-dasharray:67 69;stroke-dashoffset:68;animation:zfLjwGRs_draw 3000ms ease-in 0ms forwards;}.zfLjwGRs_25{stroke-dasharray:24 26;stroke-dashoffset:25;animation:zfLjwGRs_draw 3000ms ease-in 0ms forwards;}.zfLjwGRs_26{stroke-dasharray:1 3;stroke-dashoffset:2;animation:zfLjwGRs_draw 3000ms ease-in 0ms forwards;}@keyframes zfLjwGRs_draw{100%{stroke-dashoffset:0;}}@keyframes zfLjwGRs_fade{0%{stroke-opacity:1;}94.44444444444444%{stroke-opacity:1;}100%{stroke-opacity:0;}}</style></svg>
